<?xml version="1.0" standalone="no"?>
<!DOCTYPE svg PUBLIC "-//W3C//DTD SVG 20010904//EN"
 "http://www.w3.org/TR/2001/REC-SVG-20010904/DTD/svg10.dtd">
<svg version="1.0" xmlns="http://www.w3.org/2000/svg"
 width="630.000000pt" height="630.000000pt" viewBox="0 0 630.000000 630.000000"
 preserveAspectRatio="xMidYMid meet">
<metadata>
Created by potrace 1.11, written by Peter Selinger 2001-2013
</metadata>
<g transform="translate(0.000000,630.000000) scale(0.100000,-0.100000)"
fill="#000000" stroke="none">
<path d="M3144 6279 c-4 -13 -8 -274 -10 -579 -1 -305 -5 -634 -9 -730 -3 -96
-7 -218 -8 -270 l-3 -94 -29 -7 c-85 -18 -179 -83 -342 -235 -65 -61 -134
-124 -153 -140 -19 -16 -37 -31 -40 -35 -3 -3 -25 -17 -50 -31 -29 -16 -46
-33 -48 -47 -3 -18 0 -21 21 -17 52 9 108 51 237 176 162 156 323 280 383 295
21 6 24 3 22 -18 -2 -14 -6 -119 -10 -234 -3 -114 -8 -251 -10 -303 -3 -52 -7
-162 -10 -245 -6 -171 -11 -281 -21 -445 -3 -63 -8 -142 -9 -175 -2 -33 -6
-109 -10 -170 -3 -60 -8 -155 -10 -210 -3 -55 -7 -136 -10 -180 -2 -44 -7
-132 -10 -195 -3 -63 -7 -153 -10 -200 -5 -83 -9 -174 -20 -390 -3 -58 -7
-145 -10 -195 -16 -321 -20 -493 -20 -830 0 -365 5 -479 23 -511 15 -27 29 6
37 86 4 41 9 255 11 475 1 220 5 454 8 520 3 66 8 185 11 265 8 199 13 325 20
455 3 61 8 146 10 190 12 275 17 367 20 420 7 96 18 354 19 427 1 38 3 68 6
68 3 0 5 33 6 73 0 39 4 133 8 207 5 74 9 162 11 195 1 33 5 119 9 190 19 382
26 573 42 1280 13 567 -5 1145 -36 1179 -4 4 -11 -3 -16 -15z"/>
<path d="M3047 6093 c-32 -61 -98 -293 -113 -393 -1 -8 -5 -33 -8 -55 -9 -53
-15 -101 -21 -149 -3 -22 -7 -52 -10 -67 -3 -15 -7 -47 -10 -70 -21 -171 -55
-366 -77 -438 -30 -97 -28 -162 5 -130 12 13 28 46 25 52 -1 1 4 12 10 23 10
19 34 136 47 227 10 66 27 195 31 232 3 22 7 56 10 75 3 19 7 49 10 65 2 17 6
44 8 60 3 17 8 48 11 70 16 98 67 327 91 405 14 47 27 91 27 99 3 26 -22 22
-36 -6z"/>
<path d="M3250 6107 c0 -7 11 -46 24 -88 30 -95 89 -367 100 -461 2 -21 7 -41
9 -45 3 -4 8 -41 11 -82 4 -41 9 -77 10 -80 2 -3 6 -33 10 -66 3 -33 8 -69 10
-80 2 -11 7 -45 11 -75 4 -30 9 -64 11 -75 3 -11 6 -36 9 -55 3 -19 9 -49 14
-67 5 -17 8 -33 6 -35 -7 -6 50 -113 60 -113 18 0 17 55 -3 118 -23 70 -29 97
-37 153 -3 21 -7 48 -10 59 -2 11 -7 43 -10 70 -4 28 -8 57 -10 65 -2 8 -7 41
-10 73 -4 32 -8 68 -11 80 -4 22 -14 91 -19 137 -3 27 -16 115 -20 140 -2 8
-10 45 -19 81 -8 37 -17 78 -20 90 -3 13 -7 34 -10 47 -4 12 -8 30 -10 40 -9
38 -46 136 -61 158 -17 26 -35 32 -35 11z"/>
<path d="M2566 5018 c-9 -12 -16 -30 -16 -40 0 -15 65 -172 136 -325 28 -62
56 -93 84 -93 12 0 49 28 89 68 128 127 127 126 170 124 31 -2 41 1 46 17 11
36 -5 68 -44 86 -34 15 -41 15 -72 2 -19 -8 -65 -45 -102 -81 -38 -37 -73 -64
-78 -60 -13 8 -60 103 -95 193 -27 70 -70 131 -92 131 -6 0 -18 -10 -26 -22z"/>
<path d="M3706 5011 c-15 -15 -40 -62 -56 -105 -40 -104 -80 -184 -95 -189 -6
-3 -40 23 -76 57 -79 77 -106 95 -141 91 -61 -8 -101 -63 -73 -101 8 -12 22
-15 44 -12 30 4 41 -3 134 -93 65 -63 110 -99 124 -99 31 0 63 47 118 175 26
61 58 135 72 165 31 67 33 79 20 107 -15 33 -42 34 -71 4z"/>
<path d="M3256 4585 c4 -8 10 -15 15 -15 12 0 121 -65 144 -87 11 -10 38 -31
60 -48 40 -29 87 -71 199 -179 124 -118 189 -165 224 -160 6 1 17 2 22 3 17 2
-9 41 -33 50 -32 12 -111 74 -182 141 -167 158 -201 188 -258 229 -76 53 -133
80 -169 81 -20 0 -26 -4 -22 -15z"/>
<path d="M2386 4283 c-19 -62 -30 -246 -17 -271 11 -21 10 -21 142 -7 43 4 59
2 69 -10 7 -8 19 -15 26 -15 21 0 17 37 -7 61 -18 18 -28 20 -99 15 -58 -5
-79 -3 -82 6 -6 15 -3 83 7 156 4 36 3 58 -5 68 -16 19 -28 18 -34 -3z"/>
<path d="M3950 4280 c-6 -12 -8 -38 -4 -63 9 -55 12 -139 7 -154 -4 -9 -26
-11 -79 -7 -82 6 -124 -9 -124 -46 0 -27 16 -33 43 -15 18 11 38 14 78 9 30
-3 68 -7 86 -9 48 -5 56 12 49 102 -4 43 -8 101 -10 130 -5 74 -24 95 -46 53z"/>
<path d="M2297 3898 c-64 -130 -182 -304 -295 -436 -49 -57 -143 -193 -157
-226 -23 -54 -20 -86 8 -86 17 0 28 13 50 63 27 60 85 143 252 359 90 116 105
137 151 223 50 93 73 195 44 195 -4 0 -28 -42 -53 -92z"/>
<path d="M3977 3953 c-10 -16 4 -85 26 -133 40 -89 193 -314 264 -388 34 -35
139 -191 164 -243 36 -73 66 -91 73 -42 6 36 -75 181 -137 245 -7 7 -28 33
-47 58 -19 25 -39 50 -45 56 -83 94 -232 332 -263 422 -10 30 -25 41 -35 25z"/>
<path d="M2970 3623 c-145 -59 -384 -207 -640 -397 -52 -39 -96 -74 -98 -78
-2 -5 -8 -8 -13 -8 -6 0 -15 -5 -22 -11 -97 -84 -487 -351 -555 -379 -34 -14
-89 -58 -96 -77 -5 -13 -1 -15 28 -10 83 13 188 80 561 357 143 106 364 261
490 344 249 164 250 164 343 212 74 38 94 53 86 65 -7 12 -11 12 -84 -18z"/>
<path d="M3191 3640 c-15 -9 12 -32 64 -56 22 -10 69 -35 104 -56 34 -21 65
-38 67 -38 5 0 398 -262 404 -269 3 -3 28 -22 55 -41 58 -40 358 -262 365
-270 5 -5 16 -13 85 -60 12 -8 62 -42 111 -76 136 -93 244 -138 244 -101 0 19
-35 44 -177 123 -62 35 -211 140 -483 340 -258 190 -333 242 -495 344 -161
102 -320 176 -344 160z"/>
<path d="M1653 3273 c-4 -10 -1 -19 6 -21 30 -10 49 -43 71 -123 27 -104 35
-119 61 -119 29 0 287 130 294 147 14 38 -30 44 -90 12 -111 -60 -151 -79
-167 -79 -21 0 -30 18 -54 104 -9 32 -25 67 -35 77 -24 24 -77 25 -86 2z"/>
<path d="M4640 3263 c-53 -15 -76 -52 -95 -152 -6 -33 -23 -50 -46 -46 -19 4
-134 59 -154 75 -5 4 -25 12 -42 18 -27 9 -36 8 -49 -5 -13 -13 -13 -18 -2
-28 18 -18 247 -133 280 -140 31 -8 53 18 62 75 5 31 41 139 48 145 2 1 13 7
25 14 34 18 11 55 -27 44z"/>
<path d="M1444 2809 c-4 -7 -8 -70 -9 -140 -2 -150 0 -155 66 -138 122 31 140
33 159 22 29 -19 44 6 22 39 -19 29 -46 29 -134 3 -44 -13 -49 -12 -57 3 -5 9
-8 58 -6 107 3 83 -4 115 -26 115 -4 0 -11 -5 -15 -11z"/>
<path d="M4758 2803 c-3 -10 -4 -58 -3 -108 1 -49 -2 -95 -7 -102 -7 -8 -25
-7 -74 7 -72 21 -100 19 -120 -7 -22 -29 -11 -38 47 -39 30 0 63 -3 74 -7 74
-24 110 -28 120 -13 12 16 13 255 1 274 -11 18 -33 14 -38 -5z"/>
<path d="M1967 2544 c-2 -3 -17 -7 -32 -10 -63 -11 -320 -148 -455 -242 -163
-114 -355 -288 -481 -437 -19 -22 -43 -49 -54 -60 -25 -24 -154 -172 -210
-240 -22 -27 -56 -67 -75 -90 -19 -24 -44 -55 -55 -70 -11 -16 -25 -33 -30
-39 -6 -6 -63 -81 -126 -166 -166 -223 -197 -280 -159 -288 20 -3 50 29 139
148 39 52 74 100 79 105 4 6 41 55 82 110 41 55 80 107 87 115 7 8 69 87 139
175 69 88 129 162 133 165 4 3 22 25 41 50 43 55 197 208 310 307 340 299 672
459 808 389 36 -19 75 -67 90 -114 24 -70 1 -234 -46 -334 -11 -24 -36 -88
-56 -143 -21 -55 -43 -113 -51 -130 -7 -16 -23 -54 -35 -84 -19 -48 -41 -101
-70 -166 -5 -11 -32 -73 -59 -138 -50 -115 -208 -467 -259 -577 -14 -30 -26
-57 -27 -60 -2 -6 -11 -28 -60 -140 -56 -128 -55 -126 -41 -145 12 -17 14 -16
34 5 11 12 31 48 43 79 44 111 105 246 222 491 30 63 69 148 87 189 17 40 48
108 67 150 60 129 199 479 241 607 83 251 96 379 49 475 -40 84 -89 113 -188
116 -42 1 -79 0 -82 -3z"/>
<path d="M4175 2540 c-71 -21 -136 -122 -140 -213 -4 -103 37 -267 125 -507
44 -117 147 -371 193 -470 14 -30 45 -100 70 -155 25 -55 71 -154 102 -220 69
-146 165 -360 200 -448 31 -78 61 -113 80 -97 17 14 6 53 -50 176 -14 30 -25
56 -25 59 0 2 -18 43 -41 92 -183 394 -406 908 -489 1128 -29 77 -56 145 -60
150 -21 26 -48 171 -46 238 5 140 65 208 184 209 184 1 553 -228 867 -539 145
-144 258 -275 369 -427 16 -22 38 -50 48 -61 11 -11 92 -117 180 -235 234
-313 262 -344 283 -310 11 17 -80 163 -177 285 -5 6 -49 64 -100 130 -50 66
-94 122 -98 125 -3 3 -13 14 -21 26 -8 11 -36 47 -64 79 -27 32 -67 79 -89
104 -133 157 -389 423 -471 491 -130 107 -239 181 -400 272 -169 96 -244 124
-340 126 -33 0 -74 -3 -90 -8z"/>
<path d="M154 1140 c-12 -5 -23 -14 -26 -22 -9 -27 -8 -347 2 -372 12 -33 25
-33 157 4 122 34 149 36 175 14 14 -14 20 -14 33 -4 23 19 18 46 -15 73 -35
30 -42 30 -193 -8 -53 -14 -71 -15 -80 -6 -8 8 -12 58 -12 154 0 153 -7 180
-41 167z"/>
<path d="M6119 1133 c-10 -12 -14 -53 -14 -159 0 -97 -4 -147 -12 -155 -9 -9
-27 -8 -80 6 -151 38 -158 38 -193 8 -31 -26 -38 -51 -18 -71 8 -8 16 -8 32 1
32 17 62 19 109 6 23 -7 49 -13 57 -15 8 -2 40 -10 70 -18 70 -21 87 -20 99 3
10 18 12 336 3 374 -7 28 -37 40 -53 20z"/>
<path d="M3315 599 c-38 -22 -77 -64 -146 -156 -83 -111 -184 -217 -198 -208
-6 3 -49 62 -97 131 -104 151 -136 178 -213 181 -84 2 -131 -30 -131 -89 0
-42 27 -68 69 -68 22 0 46 -7 57 -17 32 -30 204 -274 204 -290 0 -17 86 -83
108 -83 36 0 98 52 167 138 33 41 68 84 79 96 10 11 30 37 45 56 14 19 38 48
53 63 103 110 132 180 94 229 -17 23 -65 32 -91 17z"/>
</g>
</svg>
